<?xml version="1.0" standalone="no"?>
<!DOCTYPE svg PUBLIC "-//W3C//DTD SVG 20010904//EN"
 "http://www.w3.org/TR/2001/REC-SVG-20010904/DTD/svg10.dtd">
<svg version="1.0" xmlns="http://www.w3.org/2000/svg"
 width="660.000000pt" height="660.000000pt" viewBox="0 0 660.000000 660.000000"
 preserveAspectRatio="xMidYMid meet">

<g transform="translate(0.000000,660.000000) scale(0.100000,-0.100000)"
fill="#000000" stroke="none">
<path d="M0 3300 l0 -3300 3300 0 3300 0 0 3300 0 3300 -3300 0 -3300 0 0
-3300z m3500 1675 l0 -295 -295 0 -295 0 0 295 0 295 295 0 295 0 0 -295z
m760 -765 l0 -340 -340 0 -340 0 0 340 0 340 340 0 340 0 0 -340z m-1520 -10
l0 -250 -250 0 -250 0 0 250 0 250 250 0 250 0 0 -250z m2310 -730 l0 -360
-355 0 -355 0 0 360 0 360 355 0 355 0 0 -360z m-3040 55 l0 -235 -230 0 -230
0 0 235 0 235 230 0 230 0 0 -235z m750 -685 l0 -250 -245 0 -245 0 0 250 0
250 245 0 245 0 0 -250z m1525 -135 l0 -340 -337 -3 -338 -2 0 345 0 345 338
-2 337 -3 0 -340z m-785 -760 l0 -295 -295 0 -295 0 0 295 0 295 295 0 295 0
0 -295z"/>
</g>
</svg>
